Patient4_TMGait_0pt6_01_left_27_EMG.mot
version=1
nRows=30
nColumns=33
inDegrees=no
endheader
time	1LAddLong	2LGlutMax	3LGlutMed	4LIliopsoas	5LSemiMemb	6LBicFemLong	7LRecFem	8LVastMed	9LVastLat	10LGasMed	11LTibAnt	12lTibPost	13LPeroneusLong	14LSol	15LExtDigLong	16LFlexDigLong	17RAddLong	18RGlutMax	19RGlutMed	20RIliopsoas	21RSemiMemb	22RBicFemLong	23RRecFem	24RVastMed	25RVastLat	26RGasMed	27RTibAnt	28RTibPost	29RPeroneusLong	30RSol	31RExtDigLong	32RFlexDigLong
33.28	0.020447	1.1391	0.001678	0.032349	-0.015106	0.19104	0.14297	0.010986	-0.36591	-0.088043	0.005646	0.037689	0.15625	-0.20081	-0.068665	0.008545	-0.042877	-0.27237	-0.66803	-0.027466	0.055237	-0.12421	0.66315	0.077362	0.040588	0.005035	-0.41229	-0.012054	0.001068	0.066071	0.000305	-0.018463
33.281	0.019073	1.1584	-0.027313	0.003052	0.054474	0.28885	0.1564	0.016785	-0.58166	-0.040894	-0.005798	0.052795	0.34439	-0.41336	-0.048676	0.014343	-0.090027	-0.31265	-0.67825	0.084229	0.056763	-0.12344	0.62088	0.099945	0.035248	0.007629	-0.33783	-0.005798	0.073242	0.055237	-0.001526	-0.026245
33.282	0.005493	1.1978	-0.042877	-0.006104	0.041809	0.39536	0.10986	0.020142	-0.4924	-0.00885	0.008545	0.074921	0.51758	-0.34882	0.041504	0.014191	-0.10513	-0.29892	-0.66589	0.14282	-0.028839	-0.1207	0.6134	0.067749	0.025024	0.001526	-0.091858	-0.006256	0.034943	0.040894	-0.005188	-0.022888
33.283	-0.016632	1.2567	0.024719	-0.00351	0	0.47318	0.027313	0.024567	-0.35004	0.075378	0.009766	0.10483	0.24094	-0.39276	0.06424	0.012207	-0.098877	-0.28793	-0.58823	0.098877	-0.13458	-0.03006	0.58121	0.017395	0.026855	0.003052	0.1944	-0.009308	-0.026093	0.00946	-0.00412	-0.016785
33.284	-0.01709	1.2511	0.046997	0.007935	-0.067902	0.30106	-0.042419	0.03006	-0.23086	0.10666	0.032196	0.09964	0.01709	-0.29022	0.14664	0.012817	-0.11292	-0.34622	-0.51559	0.021057	-0.159	-0.001984	0.61279	0.019836	0.006561	0.001678	0.31311	-0.002136	-0.000305	-0.026093	-0.001678	-0.019836
33.285	-0.020599	1.2476	-0.040283	0.02182	-0.17425	-0.082245	-0.066528	0.033569	-0.16876	0.023804	0.037384	0.036163	0.1358	0.002441	0.18768	0.010986	-0.037994	-0.31921	-0.50339	-0.031281	-0.18906	-0.027618	0.61295	0.043945	0.017853	0.007477	0.57846	-0.00412	-0.027924	-0.065613	-0.004425	-0.011292
33.286	0.018158	1.2164	-0.08255	0.010986	-0.26016	-0.33203	-0.043945	0.017853	-0.14755	-0.047913	-0.005035	0.067902	-0.22553	0.12955	0.066071	0.028687	-0.01709	-0.36957	-0.59113	-0.12085	-0.22339	0.077972	0.60852	0.021667	0.003357	0.006561	0.23636	-0.003662	-0.031128	-0.056152	-0.004272	-0.009155
33.287	0.052948	1.237	-0.18555	0.009766	-0.16769	-0.793	-0.10025	0.002136	-0.066223	-0.050049	-0.01709	0.08194	-0.38483	0.13443	0.010223	0.023956	-0.041199	-0.47241	-0.63187	-0.16663	-0.19592	0.17731	0.60898	-0.04364	-0.002747	0.000763	-0.016632	-0.002899	-0.086823	-0.022888	-0.00351	-0.015717
33.288	0.052948	1.3611	-0.14252	0.011444	0.095367	-0.5394	-0.096893	-0.00351	-0.093384	-0.04303	-0.02533	0.085449	0.10803	0.18036	-0.050659	0.02243	0.034027	-0.50232	-0.73395	-0.12619	-0.11459	0.10666	0.67001	-0.053253	-0.022278	0.005035	-0.00061	-0.003967	-0.04364	-0.000916	-0.009766	-0.006409
33.289	0.036621	1.3583	-0.11276	0.00885	0.076752	-0.37216	-0.029907	0.003815	-0.11902	-0.037231	-0.026245	0.088501	-0.16159	0.069122	-0.1265	0.029144	0.07019	-0.5098	-0.8252	-0.056152	-0.074463	-0.026245	0.67032	-0.07431	-0.05188	-0.000763	0.10696	-0.008392	-0.028381	0.022125	0.00412	-0.011749
33.29	0.015106	1.3629	-0.062256	0.017548	0.087585	-0.34454	-0.015411	-0.001831	-0.11658	0.067596	-0.025177	0.10071	-0.27222	-0.18906	-0.21576	0.032806	0.014343	-0.5751	-0.78934	0.22339	0.013123	-0.049286	0.681	-0.061951	-0.04425	-0.001068	0.23056	-0.007172	-0.075836	0.008392	-0.007629	-0.015717
33.291	0.006561	1.3924	-0.055084	0.019226	0.071716	-0.30624	-0.044861	0.00061	-0.076904	0.10788	-0.0383	0.10651	-0.3331	-0.35309	-0.22568	0.051575	-0.019531	-0.63095	-0.7695	0.45425	0.039825	0.031738	0.66635	-0.08194	-0.042877	-0.000305	0.048981	-0.003357	-0.090637	0.001678	-0.005341	-0.0177
33.292	0.006104	1.4006	0.019226	-0.003357	0.050964	-0.23956	-0.10086	0.002899	-0.014343	0.091705	-0.005646	0.10696	-0.37109	-0.14862	-0.009155	0.034332	-0.041351	-0.54657	-0.69488	0.44434	0.006866	0.057678	0.67062	-0.11917	-0.054016	0.014191	-0.24231	-0.001373	-0.015869	-0.12787	-0.011444	-0.014954
33.293	0.024109	1.478	0.097656	-0.000763	0.006866	-0.21316	-0.18509	-0.007629	0.079193	0.034027	0.031128	0.11368	-0.045319	0.14938	0.12726	0.035706	-0.089417	-0.49027	-0.78125	0.24475	0.032349	0.044403	0.66681	-0.080414	-0.031433	0.005493	-0.088043	-0.003357	0.053253	-0.18936	-0.003967	-0.014954
33.294	0.031586	1.4717	-0.014343	0.023499	0.035553	-0.09903	-0.22903	0.003967	0.12177	0.032043	0.015717	0.11078	0.23682	0.15533	0.063019	0.023499	-0.085907	-0.52322	-0.78629	0.14999	0.002899	0.017242	0.5983	-0.089569	-0.04303	0.005188	0.80963	-0.003052	0.005493	-0.20874	-0.002289	-0.009766
33.295	0.027313	1.4906	-0.094299	0.033417	0.11551	-0.00824	-0.33005	0.005951	0.1239	0.042114	0.007324	0.10925	0.10986	0.066833	0.026093	0.037842	-0.047913	-0.5275	-0.71365	0.05661	-0.000458	0.034943	0.59479	-0.084229	-0.045471	0.01358	0.58441	-0.005646	-0.040131	-0.24155	-0.007324	-0.013275
33.296	0.023041	1.5103	-0.10407	0.042419	0.087128	0.037537	-0.30563	0.012207	0.061798	0.061646	0.029297	0.10574	-0.014496	0.037384	0.014954	0.032501	-0.071259	-0.49301	-0.71045	-0.023193	0.000153	0.000763	0.60989	-0.066528	-0.036621	0.00946	-0.28381	-0.00351	-0.058441	-0.16113	-0.003967	-0.014954
33.297	0.011902	1.5312	-0.090637	0.006561	0.010376	0.16968	-0.24841	0.01236	0.037842	0.037994	0.033569	0.10925	0.27115	0.11719	0.012207	0.024567	-0.061035	-0.51148	-0.67795	-0.06897	-0.008698	-0.057831	0.60654	-0.089264	-0.075226	0.010681	-0.24506	-0.002899	-0.057831	0.032043	-0.003967	-0.018463
33.298	-0.008545	1.4824	-0.062256	-0.010376	-0.11261	0.35248	-0.16235	0.016022	0.026245	0.002136	0.043488	0.10254	-0.070496	0.093384	0.028534	0.027161	-0.054779	-0.53451	-0.68039	-0.063782	0.000305	-0.13763	0.60272	-0.12756	-0.047455	0.009308	-0.12268	-0.001831	-0.002136	0.071564	-0.006714	-0.015869
33.299	-0.022888	1.3817	0.041046	-0.010681	-0.23209	0.30624	-0.17425	0.00351	0.029907	0.020752	0.041351	0.10498	-0.26901	0.051422	0.00885	0.028229	-0.072632	-0.42221	-0.52338	-0.16693	-0.030823	-0.11566	0.57449	-0.20004	-0.054932	0.007477	-0.089722	-0.002289	-0.030975	0.026855	-0.004272	-0.014954
33.3	-0.015259	1.2524	0.070343	-0.015259	-0.21942	0.14053	-0.16968	-0.013428	0.062408	0.014801	-0.005798	0.090027	0.63171	0.006714	-0.019836	0.027161	-0.000153	-0.39352	-0.66696	-0.17639	-0.058441	-0.035248	0.59311	-0.13107	-0.071411	0.005035	-0.029297	-0.003662	-0.062408	0.019226	-0.00412	-0.014191
33.301	-0.00351	1.1171	0.029602	0.013733	-0.075073	-0.028534	-0.18662	-0.025482	0.15396	-0.000916	-0.021667	0.10193	0.5928	0.12192	-0.003357	0.016479	0.061646	-0.35812	-0.75729	-0.072479	-0.075989	0.033722	0.54153	-0.1683	-0.076752	0.007324	0.12955	-0.003052	-0.019073	0.050659	-0.002747	-0.000916
33.302	0.019684	1.0394	0.13184	-0.003967	0.037537	-0.065765	-0.19592	-0.020905	0.088348	-0.042877	-0.029907	0.093536	0.26504	0.16495	-0.012207	-0.036469	0.10086	-0.35477	-0.58426	-0.11139	-0.084686	0.051117	0.43076	-0.13901	-0.040131	0.007324	0.21561	-0.003357	-0.050812	0.058899	-0.004272	-0.007629
33.303	0.013123	0.94193	0.064545	0.036774	0.15167	-0.086975	-0.21347	-0.00412	0.089417	0.00412	-0.02594	0.091248	0.20325	0.058594	-0.18494	0.10147	0.07843	-0.33752	-0.52109	-0.1152	-0.11292	0.00885	0.37888	-0.14725	-0.046539	0.003357	0.10666	-0.006256	-0.050354	0.066528	-0.003357	-0.002136
33.304	0.010681	0.92575	-0.00946	0.025787	0.068359	-0.055695	-0.27069	-0.006256	0.13672	0.048523	0.027618	0.083313	-0.46204	0.03418	-0.14023	-0.012512	0.044708	-0.27878	-0.49469	0.041199	-0.14252	0.029755	0.36804	-0.19577	-0.045929	0.003357	0.12787	0.000458	-0.027008	0.062866	-0.003204	-0.005646
33.305	0.006714	0.90241	0.009308	0.011139	0.059967	0.034943	-0.23438	0.00061	0.21408	-0.020294	0.015106	0.073547	0.14923	-0.19714	-0.001678	-0.068054	-0.005341	-0.20767	-0.551	0.02533	-0.12787	0.028229	0.17502	-0.17105	-0.051575	0.006561	0.16037	-0.001221	-0.015259	0.018311	-0.003052	0.01297
33.306	-0.008545	0.84778	0.003204	-0.007782	0.046234	0.21759	-0.2948	0.013123	0.23178	-0.12619	-0.043793	0.081635	0.63217	-0.054016	0.15289	0.2562	-0.011597	-0.098724	-0.55557	-0.013885	-0.12177	0.054474	0.070038	-0.20874	-0.04303	0.004578	0.29633	-0.001068	-0.032196	-0.020752	-0.00412	0.000916
33.307	-0.010681	0.75485	0.073395	-0.037842	0.021362	0.29312	-0.39475	0.006866	0.21942	-0.17105	-0.088654	0.068207	0.19333	-0.008545	0.10208	0.112	0.014343	-0.011139	-0.36118	-0.1088	-0.112	0.05661	0.17487	-0.19638	-0.054779	0.001831	0.54718	-0.001221	-0.08606	-0.030365	-0.006104	-0.003967
33.308	-0.016785	0.62973	-0.10437	-0.01236	-0.001831	0.38177	-0.36972	-0.000763	0.098419	-0.14038	-0.052948	0.059357	-0.67673	-0.22964	-0.038605	-0.15732	0.059509	0.042419	-0.27298	-0.12512	-0.11398	0.051117	0.17716	-0.17807	-0.061646	0.002594	0.34119	0.002289	-0.078735	-0.052338	-0.003967	-0.004272
33.309	-0.012207	0.53238	-0.1326	-0.006714	-0.028076	0.38437	-0.35431	0.001221	0.16739	-0.077972	0.005341	0.035706	-0.04303	-0.4158	-0.13626	-0.11185	0.088806	0.099182	-0.22049	-0.005951	-0.11368	0.037384	0.3006	-0.242	-0.049896	0.009308	0.12177	0.001373	-0.065155	-0.14267	-0.000916	-0.009155
